<svg version="1" xmlns="http://www.w3.org/2000/svg" width="346.667" height="346.667" viewBox="0 0 260.000000 260.000000"><path d="M.7.7C.3 1 0 53 0 116.1v114.8l5 1.5c2.7.8 10.9 4 18.2 7 34.8 14.4 51.9 20.3 56.6 19.4 1.2-.2-4.1-6-18-19.5-17.9-17.3-20.6-19.6-28.4-23.5-13-6.5-25.5-18.7-23.8-23.2 2.1-5.6 18.9-.8 44.1 12.5 13 6.8 17.1 7.5 20.6 3.3 9-10.8 8.8-10.7 13.3-10 5.5.7 16.4 4.4 29.9 10.2 21.2 9 37 15.3 37.3 14.9.9-.9-1.8-3-17.1-13.1-11.8-7.8-18.5-13-24.9-19.5-9.7-9.7-10.1-10.7-6.9-18 3.3-7.5 3.2-14.1-.4-19.3-3.4-5-3.2-6.4 1.3-8.2 11.1-4.8 12.4-5.5 13.5-8.3.8-1.7 1.7-2.6 2.7-2.3 2 .7 14.7 9.7 29.5 21.1 32.6 25 51.5 37.9 65.3 44.8 7.9 3.9 10.3 4.6 15.5 4.7 5 .1 6.2-.2 6.5-1.6.2-.9-3.3-5.5-8.7-11.2-8.8-9.4-11.3-13.8-10.3-17.9 1.7-6.5 13.6-3.3 30.9 8.4 4 2.7 7.5 4.9 7.8 4.9.3 0 .4-42.2.3-93.8L259.5.5 130.4.2C59.4.1 1 .3.7.7z"/></svg>